# xmcd
#
# Track frame offsets:
#	150
#	35548
#	57988
#	67840
#	85951
#	104136
#	120979
#	142856
#	171547
#	203615
#	235797
#	293542
#
# Disc length: 4128
#
# Revision: 1
# Processed by: cddbd v1.5.1PL0 Copyright (c) Steve Scherf et al.
# Submitted via: CDex 1.51
# Normalized: r0:DSETVAR1,TDELIM( - ),TSWAP
#
DISCID=a3101e0c
DTITLE=Various Artist - Guitar Greats
DYEAR=1900
DGENRE=Jazz
TTITLE0=Santana - Evil Ways
TTITLE1=BB King - The Thrill is Gone
TTITLE2=Buddy Guy - First Time I met the Blues
TTITLE3=Steve Howe - Don't Think Twice It's Alright
TTITLE4=Robbie Krieger - We Are The Champions
TTITLE5=Lemmy Kilmister - Tie Your Mother Down
TTITLE6=Jeff Baker - Breath in the Air
TTITLE7=Santana - Soul Sacrifice
TTITLE8=Mike Bloomfield - Between the Hard Place and the Ground
TTITLE9=Stray Cats - Rock this Town
TTITLE10=George Benson - All Blues
TTITLE11=BB King - It's My Own Fault
EXTD=
EXTT0=
EXTT1=
EXTT2=
EXTT3=
EXTT4=
EXTT5=
EXTT6=
EXTT7=
EXTT8=
EXTT9=
EXTT10=
EXTT11=
PLAYORDER=
